# xmcd
#
# Track frame offsets:
#	150
#	15629
#	44590
#	73355
#	90032
#	104139
#	123427
#	142579
#
# Disc length: 2151 seconds
#
# Revision: 1
# Processed by: cddbd v1.5.2PL0 Copyright (c) Steve Scherf et al.
# Submitted via: audiograbber 1.83.01
#
DISCID=68086508
DTITLE=The Atlanta Cafe Band - Voodoo Brotherhood
DYEAR=2008
DGENRE=Blues
TTITLE0=Talk To You  Voodoo Brotherhood
TTITLE1=Blues For Nancy Voodoo Brotherhood
TTITLE2=Bluesman Voodoo Brotherhood
TTITLE3=Put a Boogie in your Pocket Voodoo Brotherhood
TTITLE4=Going Down to Memphis Voodoo Brotherhood
TTITLE5=Mewie Voodoo Brotherhood
TTITLE6=School for the Blues Voodoo Brotherhood
TTITLE7=Stevie Ray Voodoo Brotherhood
EXTD=www.theatlantacafeband.com 
EXTT0=The Atlanta Cafe Band with belote and sally copyright 2008
EXTT1=Tribute to Charlies late sister Nancy copyright 2008
EXTT2=The Atlanta Cafe Band with belote and sally copyright 2008
EXTT3=The Atlanta Cafe Band copyright 2008
EXTT4=The Atlanta Cafe Band with Frank Banincasa copyright 2009
EXTT5=The Atlanta Cafe Band copyright 2008
EXTT6=The Atlanta Cafe Band with Frank Banincasa, belote copyright 2008
EXTT7=The Atlanta Cafe Band with Frank Banincasa, belote, sally copyright 2008
PLAYORDER=
